<svg width="128" height="128" fill="none" xmlns="http://www.w3.org/2000/svg"><path d="M59.98 91.51c0 .24-.197.438-.438.438h-10.6c-.24 0-.313-.153-.161-.341l3.336-4.117c.151-.187.472-.34.713-.34h6.712c.24 0 .437.196.437.437v3.923ZM59.98 85.686c0 .24-.197.437-.438.437h-5.92c-.24 0-.313-.153-.161-.34l3.336-4.117c.151-.187.472-.34.713-.34h2.033c.24 0 .437.196.437.437v3.922ZM64.26 97.283v-15.48c0-.266.217-.482.483-.482h1.89c.267 0 .483.216.483.482v15.48a.483.483 0 0 1-.482.483h-1.891a.483.483 0 0 1-.482-.483ZM75.36 97.766c-2.384 0-4.345-2.027-4.098-4.45.21-2.08 2.012-3.634 4.102-3.634h10.502s.007-.004.007-.008v-.646a1.69 1.69 0 0 0-1.708-1.708H72.767a.483.483 0 0 1-.482-.483v-1.89c0-.267.216-.483.482-.483h11.398c2.51 0 4.563 2.04 4.563 4.564v8.255a.483.483 0 0 1-.482.483H75.361Zm10.506-5.229h-10.54c-.675 0-1.243.546-1.23 1.22a1.15 1.15 0 0 0 1.182 1.153h10.589s.007-.003.007-.007v-2.36s-.003-.007-.007-.007l-.001.001ZM93.358 97.283v-15.48c0-.266.217-.482.483-.482h1.89c.267 0 .483.216.483.482v2.982s.005.008.01.007a4.583 4.583 0 0 1 1.698-.329h7.825a4.571 4.571 0 0 1 4.571 4.571v4.16a4.571 4.571 0 0 1-4.571 4.57H93.841a.483.483 0 0 1-.483-.482v.001Zm14.105-8.248c0-.947-.768-1.715-1.716-1.715h-7.825c-.962 0-1.708.745-1.708 1.697v5.887s.003.007.007.007h9.526c.948 0 1.716-.768 1.716-1.715v-4.161ZM59.98 97.333c0 .241-.197.438-.438.438H44.359c-.241 0-.315-.153-.163-.34l3.336-4.118c.152-.187.473-.34.714-.34h11.297c.24 0 .437.196.437.437v3.923Z" fill="#326EB0"/><path d="M41.994 97.431c-.152.187-.472.34-.714.34H18.12a.439.439 0 0 1-.438-.437v-3.922c0-.24.197-.437.437-.437h27.047c.241 0 .314.153.163.34l-3.336 4.117ZM46.54 91.608c-.152.187-.472.34-.714.34H18.12a.439.439 0 0 1-.437-.437V87.59c0-.24.197-.438.437-.438h31.594c.24 0 .314.153.162.341l-3.336 4.117v-.001ZM51.127 85.784c-.152.186-.472.34-.714.34H18.12a.439.439 0 0 1-.437-.437v-1.524c0-.24.197-.437.437-.437h21.93c.24 0 .55-.162.687-.36l1.162-1.679a.938.938 0 0 1 .687-.36h11.716c.24 0 .314.153.162.34l-3.336 4.118v-.001Z" fill="#50AE48"/><path d="M53.246 51.95c-.316-.442-.662-.913-.994-1.395-1.179-1.713-2.305-3.456-2.741-5.53a12.31 12.31 0 0 1-.276-2.157c-.056-1.93-.25-3.875.209-5.778.613-2.556 2.124-4.458 4.404-5.755 1.394-.792 2.904-1.109 4.495-1.107 2.167.003 4.334 0 6.5.002 4.165.004 7.587 2.49 8.787 6.468.246.816.315 1.705.336 2.564.048 1.934.019 3.87.015 5.804-.002 1.167-.527 1.71-1.693 1.717-1.827.014-3.653.013-5.48 0-1.129-.008-1.668-.558-1.686-1.688-.022-1.485-.002-2.972-.06-4.455-.05-1.236-.619-1.897-1.824-1.998a19.795 19.795 0 0 0-3.38.017c-1.12.098-1.645.78-1.766 1.915-.21 1.953.258 3.665 1.494 5.239 3.161 4.028 6.253 8.11 9.373 12.171.054.07.118.133.221.248.345-.83.67-1.608.99-2.386.496-1.2 1-2.397 1.481-3.603.395-.989 1.1-1.492 2.17-1.49 1.625.004 3.25-.008 4.875.004 1.363.009 2.01.858 1.648 2.175a9.94 9.94 0 0 1-.547 1.524 1678.521 1678.521 0 0 1-4.827 10.382c-.142.302-.146.503.063.783 2.073 2.775 4.13 5.564 6.192 8.347.374.505.672 1.03.642 1.695-.033.75-.554 1.37-1.31 1.376-2.332 0-4.653.003-6.998 0-.67-.002-1.186-.361-1.587-.871-.47-.596-.937-1.193-1.406-1.789-.104-.132-.21-.26-.268-.33-.714.632-1.368 1.292-2.103 1.841-1.13.845-2.496 1.149-3.877 1.155-2.403.01-4.86-.005-7.284-.003-3.999-.033-7.416-2.613-8.555-6.459-.238-.802-.33-1.673-.338-2.514-.03-2.893-.064-5.79.042-8.68.093-2.51 1.005-4.716 3.069-6.289.594-.453 1.301-.757 1.992-1.15h.002Zm4.731 6.276s-.7 1.092-.787 1.68c-.146.973-.18 1.968-.193 2.954a46.111 46.111 0 0 0 .077 3.523c.084 1.316.795 2.09 2.112 2.226 1.027.106 2.07.06 3.105.064 1.052.004 1.819-.485 2.364-1.376.216-.35.191-.578-.078-.924-.22-.282-6.6-8.147-6.6-8.147ZM30.569 77.04H25.62c-2.582 0-4.601-1.619-6.159-3.654-1.272-1.665-1.77-3.574-1.75-5.648.017-1.857 0-3.714.005-5.572.003-1.138.528-1.682 1.669-1.691 1.842-.015 3.835-.015 5.676 0 .91.007 1.497.663 1.512 1.573.023 1.335 0 2.748.057 4.08.059 1.368.832 2.306 2.197 2.456 1.171.129 2.383.112 3.555-.022 1.248-.144 2.008-1.1 2.06-2.372.043-1.02.028-2.04.012-3.06-.02-1.225-.565-2.178-1.607-2.808-2.327-1.407-4.671-2.784-7.009-4.172-1.154-.685-2.324-1.347-3.481-2.028-2.905-1.708-4.415-4.318-4.572-7.673-.13-2.792-.142-5.607.054-8.394.212-3.025 1.937-5.209 4.526-6.715 1.4-.814 2.933-1.115 4.538-1.111 2.414.004 4.83-.005 7.243.002 3.958.01 6.767 1.859 8.488 5.381.464.95.7 1.986.71 3.05.018 2.198.02 4.255.011 6.453-.003.936-.584 1.639-1.515 1.653-1.98.03-3.893.03-5.873 0-.892-.013-1.427-.577-1.452-1.477-.03-1.129-.006-2.258-.018-3.388-.004-.386-.012-.778-.08-1.156-.206-1.148-.91-1.94-2.078-2.06a17.937 17.937 0 0 0-3.556-.006c-1.2.12-2.011.93-2.112 2.125-.11 1.288-.074 2.597.008 3.889.062.98.71 1.645 1.538 2.133 1.598.944 3.193 1.891 4.787 2.841 2.072 1.236 4.154 2.455 6.208 3.72 1.124.694 2.11 1.565 2.866 2.67.699 1.02 1.121 2.171 1.157 3.382.092 3.122.21 6.253.07 9.37-.145 3.164-1.848 5.506-4.56 7.102-1.381.812-2.9 1.126-4.49 1.126H30.567Z" fill="#326EB0"/><path d="M100.298 66.168h-6.54c-.084.954-.168 1.89-.249 2.826-.183 2.142-.356 4.285-.553 6.425-.102 1.1-.707 1.619-1.82 1.62-1.811 0-3.621.003-5.432 0-1.026-.002-1.563-.553-1.473-1.578.168-1.91.387-3.814.59-5.72.23-2.151.466-4.302.701-6.454.264-2.428.531-4.855.795-7.283.231-2.12.46-4.242.69-6.362l.8-7.33c.23-2.12.457-4.241.687-6.362.159-1.476.302-2.953.486-4.425.08-.636.454-1.08 1.11-1.215.255-.052.52-.075.781-.075 4.287-.005 8.575-.003 12.862-.003 1.229 0 1.727.396 1.876 1.624.262 2.148.476 4.302.71 6.453l.794 7.283.691 6.362c.267 2.444.533 4.886.798 7.33l.688 6.361c.265 2.444.539 4.886.797 7.33.093.876.178 1.754.222 2.634.044.868-.492 1.424-1.351 1.428-2.075.009-4.148.009-6.222 0-.906-.004-1.53-.666-1.615-1.646-.253-2.928-.504-5.855-.758-8.783-.013-.138-.041-.273-.067-.44h.002Zm-.737-8.389c0-.097.005-.171 0-.245l-.29-3.277c-.167-1.893-.33-3.787-.5-5.68-.203-2.278-.41-4.555-.62-6.833a92.636 92.636 0 0 0-.293-2.811c-.046-.371-.216-.68-.655-.726-.471-.05-.746.141-.817.728-.21 1.748-.384 3.5-.56 5.252-.204 2.045-.393 4.092-.594 6.136-.201 2.045-.41 4.089-.61 6.133-.043.436-.07.874-.104 1.323h5.044Z" fill="#50AE48"/></svg>